<svg xmlns="http://www.w3.org/2000/svg" xmlns:xlink="http://www.w3.org/1999/xlink" viewBox="0 0 50.63 70.09"><defs><style>.cls-1{fill:none;}.cls-2{fill:#fff;}.cls-3{clip-path:url(#clip-path);}.cls-4{fill:#f7b600;}</style><clipPath id="clip-path" transform="translate(-6.73)"><polygon class="cls-1" points="37 21.28 36.13 25.15 35.08 26.48 33.54 28.94 32 32.57 31.42 34.36 31.13 37.78 31.13 49.11 31.13 53.03 31.13 65.94 2.17 65.94 0 38.57 1.42 30.23 4 21.28 5.5 18.65 13.75 17.9 25.75 18.65 33.42 19.15 37.74 20.57 37 21.28"/></clipPath></defs><title>Visa fan set</title><g id="Layer_2" data-name="Layer 2"><g id="Слой_1" data-name="Слой 1"><path class="cls-2" d="M54.87,28.57,52.76,25.2A7.8,7.8,0,0,1,51.64,22L49.71,5.62A3.22,3.22,0,0,0,47.55,0H41a3.22,3.22,0,0,0-2.16,5.62L36.89,22a7.79,7.79,0,0,1-1.12,3.2l-2.11,3.37a16.37,16.37,0,0,0-2.49,8.69V64.67a5.42,5.42,0,0,0,5.42,5.42H51.94a5.42,5.42,0,0,0,5.42-5.42V37.26a16.38,16.38,0,0,0-2.49-8.69ZM41,2.06h6.58a1.17,1.17,0,0,1,0,2.33H41a1.17,1.17,0,0,1,0-2.33ZM33.22,50.34H41a1,1,0,1,0,0-2.06H33.22V46h2.26a1,1,0,1,0,0-2.06H33.22V39.37h11a1.17,1.17,0,0,1,1.17,1.17V58.09a1.17,1.17,0,0,1-1.17,1.17h-11ZM55.3,64.67A3.36,3.36,0,0,1,51.94,68H36.58a3.36,3.36,0,0,1-3.36-3.36V61.31h11a3.23,3.23,0,0,0,3.22-3.22V40.53a3.23,3.23,0,0,0-3.22-3.22h-11v-.05a14.32,14.32,0,0,1,2.18-7.6l2.11-3.37a9.88,9.88,0,0,0,1.42-4.05L40.79,6.45h6.95l1.86,15.79A9.87,9.87,0,0,0,51,26.29l2.11,3.37a14.32,14.32,0,0,1,2.18,7.6Zm0,0" transform="translate(-6.73)"/><path class="cls-2" d="M41,52.67H38.77a1,1,0,0,0,0,2.06H41a1,1,0,1,0,0-2.06Zm0,0" transform="translate(-6.73)"/><g class="cls-3"><path class="cls-2" d="M37.48,60.33c2.58-7,2.58-27.19,0-34.14l.76-4a.86.86,0,0,0-.85-1H8.75a.86.86,0,0,0-.85,1l.76,4c-2.58,7-2.58,27.18,0,34.14l-.76,4a.86.86,0,0,0,.85,1H37.39a.86.86,0,0,0,.83-1.09ZM36.34,22.89l-.48,2.52H10.27L9.8,22.89ZM10.16,27.14H36c2.28,6.74,2.28,25.51,0,32.25H10.16c-2.27-6.75-2.27-25.51,0-32.25ZM9.8,63.64l.48-2.52h25.6l.48,2.52Zm0,0" transform="translate(-6.73)"/><path class="cls-4" d="M14,50.19h.27a11.71,11.71,0,0,0,2.8-.68,19.21,19.21,0,0,1,3.78-.92h.28a10.83,10.83,0,0,1,2.42.38,14.85,14.85,0,0,0,3.49.5,8.06,8.06,0,0,0,5.66-2.08,5.67,5.67,0,0,0,1.49-4.34c-.2-4.84-5.45-6.93-8.09-6.93-4,0-6.23,3.3-7,5.45-5.39.79-7.21,5.15-7.21,6.31A2.27,2.27,0,0,0,14,50.19Zm12.1-12.33c1.81,0,6.2,1.52,6.36,5.28a4,4,0,0,1-1,3.07,6.48,6.48,0,0,1-4.41,1.55,13.25,13.25,0,0,1-3.1-.45,12.28,12.28,0,0,0-2.81-.42h-.38a12.53,12.53,0,0,0-2.49.49,18.57,18.57,0,0,0,2.29-4.75h0c.06-.19,1.4-4.75,5.55-4.75Zm-7.71,5.62c-.82,2-2.36,4.72-4.23,5-.57-.1-.57-.39-.57-.58a6.44,6.44,0,0,1,4.8-4.41Zm0,0" transform="translate(-6.73)"/></g><polygon class="cls-2" points="30.01 21.61 29.54 24.01 30.22 24.17 30.42 22.95 30.42 21.73 30.34 21.51 30.05 21.57 30.01 21.61"/></g></g></svg>