<svg xmlns="http://www.w3.org/2000/svg" xmlns:xlink="http://www.w3.org/1999/xlink" viewBox="0 0 109.32 75.43">
    <defs>
        <style>.cls-1,.cls-5,.cls-6,.cls-8{fill:none;}.cls-2{fill:#fff;}.cls-3{fill:#f7b600;}.cls-4{clip-path:url(#clip-path);}.cls-5,.cls-6,.cls-8{stroke:#fff;stroke-miterlimit:10;}.cls-2,.cls-3,.cls-4,.cls-5,.cls-6{stroke-width:2px;}.cls-6,.cls-8{stroke-linecap:round;}.cls-7{clip-path:url(#clip-path-2);}</style>
        <clipPath id="clip-path" transform="translate(-6.17 -9.42)">
            <polyline class="cls-1" points="89.77 54.5 121.71 42.19 106.65 17 83.74 0 68.62 29.42 68.04 33.73 69.43 41.17 70.13 64.78 68.04 73.62" />
        </clipPath>
        <clipPath id="clip-path-2" transform="translate(-6.17 -9.42)">
            <polyline class="cls-1" points="14.88 70.94 0 35.44 22.91 12.44 38.03 41.87 38.61 46.17 33.73 53.61 35.36 77.22" />
        </clipPath>
    </defs>
    <title>2</title>
    <g id="Слой_2" data-name="Слой 2">
        <g id="Слой_1-2" data-name="Слой 1">
            <path class="cls-2" d="M70.48,60.94c.58-9.77-.12-21.63-2.09-26.86l.93-4.66a1,1,0,0,0-.82-1.16H35.12a1,1,0,0,0-1,1v.11L35,34.08c-3,8.14-3,31.63,0,39.65l-.93,4.65a1,1,0,0,0,.81,1.17H68.27a1,1,0,0,0,1-1v-.23l-.82-4.54a38.76,38.76,0,0,0,1.75-9.18M67.11,30.24l-.59,2.9H36.75l-.58-2.9Zm.81,36.28a31.87,31.87,0,0,1-1.28,6.17h-30C34,64.78,34,43,36.64,35.12h30c1.51,4.42,2.09,13.14,2,21.4a51.92,51.92,0,0,1-.35,6m-32.1,15,.58-2.91H66.52l.59,2.91Z" transform="translate(-6.17 -9.42)" />
            <path class="cls-3" d="M41.06,62h.34a10.28,10.28,0,0,0,3.26-.82,27.64,27.64,0,0,1,4.42-1h.35a11.79,11.79,0,0,1,2.79.46,15.57,15.57,0,0,0,4.07.58,9.37,9.37,0,0,0,6.63-2.44,6.62,6.62,0,0,0,1.74-5c-.23-5.58-6.39-8-9.42-8-4.65,0-7.21,3.84-8.14,6.4-6.28.93-8.37,5.93-8.37,7.33A2.45,2.45,0,0,0,41.06,62ZM55.13,47.68c2.09,0,7.21,1.75,7.44,6.17a5.18,5.18,0,0,1-1.16,3.6,7.48,7.48,0,0,1-5.12,1.75,19.31,19.31,0,0,1-3.6-.47,15.91,15.91,0,0,0-3.26-.46H49a12.43,12.43,0,0,0-2.9.58,20.67,20.67,0,0,0,2.67-5.59h0c.12-.23,1.63-5.58,6.4-5.58Zm-9,6.51c-.93,2.33-2.79,5.47-4.88,5.82-.7-.12-.7-.47-.7-.7a7.56,7.56,0,0,1,5.58-5.12Z" transform="translate(-6.17 -9.42)" />
            <g class="cls-4">
                <path class="cls-2" d="M110.49,45a.8.8,0,0,0,.81-.82.82.82,0,1,0-1.63,0,.88.88,0,0,0,.23.58c.24.12.35.24.59.24Z" transform="translate(-6.17 -9.42)" />
                <path class="cls-2" d="M114.67,42.22a.82.82,0,0,0,.82-.82.88.88,0,0,0-.24-.58.86.86,0,0,0-.58-.23.79.79,0,0,0-.81.81.86.86,0,0,0,.23.58c.12.24.35.24.58.24Z" transform="translate(-6.17 -9.42)" />
                <path class="cls-2" d="M111,38.73a.79.79,0,0,0-.81.81.86.86,0,0,0,.23.58.88.88,0,0,0,.58.24.8.8,0,0,0,.81-.82.88.88,0,0,0-.23-.58c-.11-.23-.35-.23-.58-.23Z" transform="translate(-6.17 -9.42)" />
                <path class="cls-2" d="M78.85,18a.82.82,0,0,0,.82-.82.88.88,0,0,0-.24-.58.86.86,0,0,0-.58-.23.79.79,0,0,0-.81.81.86.86,0,0,0,.23.58c.12.24.35.24.58.24Z" transform="translate(-6.17 -9.42)" />
                <path class="cls-2" d="M82.92,15.35a.8.8,0,0,0,.82-.81.82.82,0,0,0-.82-.82.88.88,0,0,0-.58.24.84.84,0,0,0-.23.58.88.88,0,0,0,.23.58c.23.11.35.23.58.23Z" transform="translate(-6.17 -9.42)" />
                <path class="cls-2" d="M93.62,11.05a.91.91,0,0,0,.58-.23.83.83,0,0,0,0-1.17.91.91,0,0,0-.58-.23.93.93,0,0,0-.58.23.86.86,0,0,0,0,1.17c.23.11.35.23.58.23Z" transform="translate(-6.17 -9.42)" />
                <path class="cls-2" d="M79.32,11.75a.84.84,0,0,0-.58.23.82.82,0,0,0,0,1.16.84.84,0,0,0,.58.23.88.88,0,0,0,.58-.23.85.85,0,0,0,0-1.16.88.88,0,0,0-.58-.23Z" transform="translate(-6.17 -9.42)" />
                <path class="cls-5" d="M71.76,39.19c-.35.58-.7,1.05-1.05,1.63h0A204.27,204.27,0,0,1,39.89,78.15a2.14,2.14,0,0,0-.58,1.4,1.91,1.91,0,0,0,.58,1.39l2.33,2.33a2.14,2.14,0,0,0,1.39.58h0a1.92,1.92,0,0,0,1.4-.58A211.06,211.06,0,0,1,82.34,52.45a5,5,0,0,1,1-.58" transform="translate(-6.17 -9.42)" />
                <path class="cls-5" d="M98.16,42.91h0a2.63,2.63,0,0,0-.58-1.28h0L81.41,25.47h0a1.91,1.91,0,0,0-2.79,0,2.46,2.46,0,0,0-.47.7,130,130,0,0,1-6.28,12.67L83.5,51.52a131.88,131.88,0,0,1,13.38-6.75,2.47,2.47,0,0,0,.7-.46h0s1-1.81.11-2.12" transform="translate(-6.17 -9.42)" />
                <line class="cls-6" x1="97.34" y1="12.33" x2="89.78" y2="19.89" />
                <line class="cls-6" x1="100.48" y1="22.56" x2="93.04" y2="25.35" />
                <line class="cls-6" x1="88.27" y1="8.14" x2="85.48" y2="15.47" />
            </g>
            <g class="cls-7">
                <path class="cls-2" d="M6.86,47.22c0-.12,0-.24-.11-.24a.37.37,0,0,0-.23-.11c-.12,0-.24,0-.24.11a.39.39,0,0,0-.11.24c0,.11,0,.23.11.23a.37.37,0,0,0,.24.12h0c.11,0,.23,0,.23-.12" transform="translate(-6.17 -9.42)" />
                <path class="cls-2" d="M8.26,45.82c-.12,0-.23,0-.23.12a.34.34,0,0,0-.12.23c0,.12,0,.23.12.23a.34.34,0,0,0,.23.12c.12,0,.23,0,.23-.12a.34.34,0,0,0,.12-.23c0-.12,0-.23-.12-.23a.38.38,0,0,0-.23-.12Z" transform="translate(-6.17 -9.42)" />
                <path class="cls-2" d="M23.84,35.94c.12,0,.24,0,.24-.12a.37.37,0,0,0,.11-.23c0-.12,0-.24-.11-.24a.39.39,0,0,0-.24-.11c-.11,0-.23,0-.23.11a.37.37,0,0,0-.12.24c0,.11,0,.23.12.23s.12.12.23.12Z" transform="translate(-6.17 -9.42)" />
                <path class="cls-2" d="M16.75,32.45c.12,0,.23,0,.23-.12a.36.36,0,0,0,.12-.23c0-.12,0-.23-.12-.23a.34.34,0,0,0-.23-.12c-.12,0-.23,0-.23.12a.34.34,0,0,0-.12.23s0,.23.12.23.11.12.23.12Z" transform="translate(-6.17 -9.42)" />
                <path class="cls-5" d="M21.63,52.22c.12.11.35.23.47.35A98.68,98.68,0,0,1,40.24,67.45a.84.84,0,0,0,.7.24h0a1.67,1.67,0,0,0,.7-.24l1.16-1.16a.87.87,0,0,0,.23-.7,1.65,1.65,0,0,0-.23-.7A94,94,0,0,1,27.91,46.75h0c-.11-.23-.35-.58-.46-.81" transform="translate(-6.17 -9.42)" />
                <path class="cls-5" d="M14.54,47.91V48h0a.91.91,0,0,0,.23.58h0c.12.12.23.12.35.23s3.26,1.4,6.51,3.26l5.7-6.16a40.89,40.89,0,0,1-3-6.17c0-.11-.12-.23-.23-.35a1.09,1.09,0,0,0-1.4,0h0l-7.79,7.8h0a1,1,0,0,0-.35.69Z" transform="translate(-6.17 -9.42)" />
                <line class="cls-8" x1="5.12" y1="28.26" x2="8.84" y2="31.87" />
                <line class="cls-8" x1="3.72" y1="33.26" x2="7.33" y2="34.54" />
                <line class="cls-8" x1="9.54" y1="26.17" x2="10.93" y2="29.77" />
            </g>
        </g>
    </g>
</svg>