<?xml version="1.0" encoding="utf-8"?>
<!-- Generator: Adobe Illustrator 21.1.0, SVG Export Plug-In . SVG Version: 6.00 Build 0)  -->
<svg version="1.1" id="Layer_1" xmlns="http://www.w3.org/2000/svg" xmlns:xlink="http://www.w3.org/1999/xlink" x="0px" y="0px"
	 viewBox="0 0 608 232" style="enable-background:new 0 0 608 232;" xml:space="preserve">
<style type="text/css">
	.st0{fill:#E5110E;}
	.st1{enable-background:new    ;}
	.st2{fill:#FFFFFF;}
	.st3{fill:#E5100D;}
	.st4{fill:#FBFCFB;}
	.st5{fill:#8BC53F;}
	.st6{fill:#00AF4C;}
</style>
<path class="st0" d="M563.763,212H44.835c-13.386,0-24.239-11.302-24.239-25.244V45.244C20.597,31.302,31.449,20,44.835,20h518.926
	C577.148,20,588,31.302,588,45.244v141.51C588.002,200.698,577.15,212,563.763,212z"/>
<g class="st1">
	<path class="st2" d="M430.194,82.362l2.771,5.458l2.436-5.458h1.698l-4.785,10.527h-1.696l1.424-3.144l-3.814-7.383
		C428.227,82.362,430.194,82.362,430.194,82.362z"/>
	<path class="st2" d="M446.507,86.483h4.511v-4.121h1.635v10.527h-1.635v-4.902h-4.511v4.902h-1.637V82.362h1.637V86.483z"/>
	<path class="st2" d="M468.691,85.791l-7.145,7.55V82.362h1.637v7.098l7.145-7.55v10.979h-1.637V85.791z"/>
	<path class="st2" d="M480.824,82.362c0.848,0,1.772-0.031,2.62,0.556c0.635,0.435,1.196,1.172,1.196,2.377
		c0,0.588-0.137,1.308-0.94,1.925c1.331,0.407,1.848,1.565,1.848,2.542c0,0.617-0.197,1.687-1.059,2.393
		c-0.924,0.751-2.075,0.737-2.831,0.737h-2.438V82.364h1.604V82.362z M480.855,86.888h0.483c0.363,0,1.727,0,1.727-1.549
		c0-1.445-1.303-1.473-1.665-1.473h-0.545L480.855,86.888L480.855,86.888z M480.855,91.385h0.969c1.739,0,2.087-0.918,2.087-1.593
		c0-0.724-0.393-1.579-2.059-1.579h-0.998V91.385z"/>
	<path class="st2" d="M499.8,83.866h-4.209v2.527h4.087v1.504h-4.087v3.49h4.209v1.504h-5.842V82.364h5.842V83.866z"/>
	<path class="st2" d="M510.601,82.362c0.696,0,1.514,0.045,2.315,0.57c1.059,0.692,1.317,1.775,1.317,2.556
		c0,1.099-0.498,1.852-1.028,2.304c-0.834,0.706-1.817,0.826-2.589,0.826h-0.711v4.271h-1.635V82.362
		C508.27,82.362,510.601,82.362,510.601,82.362z M509.905,87.114h0.711c0.711,0,1.985-0.165,1.985-1.64
		c0-1.532-1.44-1.608-1.999-1.608h-0.696V87.114z"/>
	<path class="st2" d="M530.153,84.829c-1.118-1.083-2.286-1.174-2.859-1.174c-2.3,0-3.8,1.701-3.8,4.015
		c0,2.243,1.559,3.925,3.8,3.925c0.5,0,1.665-0.09,2.859-1.219v1.925c-0.332,0.212-1.317,0.798-2.907,0.798
		c-0.907,0-2.393-0.181-3.753-1.457c-1.03-0.977-1.696-2.257-1.696-3.972c0-1.368,0.422-2.916,1.696-4.121
		c1.104-1.052,2.376-1.398,3.828-1.398c1.364,0,2.182,0.346,2.831,0.781L530.153,84.829L530.153,84.829z"/>
	<path class="st2" d="M544.801,90.333h-4.496l-1.168,2.556h-1.755l5.268-11.129l5.027,11.129h-1.755L544.801,90.333z
		 M544.164,88.829l-1.573-3.551l-1.637,3.551H544.164z"/>
	<path class="st2" d="M555.117,92.889l2.225-11.31l3.679,8.152l3.724-8.152l1.999,11.31h-1.665l-1.059-6.347l-3.089,6.829
		l-3.044-6.846l-1.106,6.363H555.117z"/>
</g>
<g id="_x23_e5100dff">
	<path id="path5" class="st3" d="M68.464,79.086c9.888-9.174,23.931-13.842,37.381-12.108c-2.554,1.652-5.381,2.816-8.108,4.153
		c-6.362,3.061-12.225,7.061-17.741,11.422c6.045,5.191,13.106,9.807,21.168,10.971c5.598,0.442,11.416,0.56,16.768-1.382
		c6.516-2.131,12.27-6.166,16.823-11.241c9.615,9.697,14.634,23.701,13.306,37.246c-1,12.631-7.589,24.65-17.532,32.55
		c-9.625,7.865-22.512,11.504-34.874,10.193c-3.708-0.407-7.462-1.083-10.779-2.853c5.271-0.875,10.689-0.975,15.832-2.538
		c9.562-2.727,19.05-7.884,24.312-16.569c3.835-5.877,4.881-13.498,2.655-20.144c-1.973-6.04-7.544-10.429-13.679-11.811
		c-6.68-1.671-13.597-0.263-20.158,1.245c0.201-2.979,0.682-5.932,1.172-8.877c-4.226-2.645-8.47-5.264-12.725-7.865
		c-1.454,5.309-2.155,10.781-3.353,16.144c-0.955,4.965-2.245,9.878-2.626,14.935c6.952-3.809,15.142-6.247,23.059-4.271
		c4.162,1.264,8.325,4.595,8.499,9.229c0.508,6.121-4.255,11.16-9.335,13.85c-7.817,3.928-17.006,3.512-25.357,1.77
		c-1.045,2.32-1.973,4.695-3.009,7.025c-10.715-8.767-17.215-22.419-17.032-36.225C52.931,100.864,58.73,87.853,68.464,79.086z"/>
</g>
<g id="_x23_fbfcfbff">
	<path id="path8" class="st4" d="M87.378,59.872c11.561-2.908,24.085-1.923,35.028,2.79c6.317,2.989,13.523,1.418,20.187,2.943
		c-1.108,2.627-2.182,5.264-3.308,7.873c11.461,10.834,17.86,26.554,17.387,42.238c-0.518,10.673-3.808,21.308-10.107,30.032
		c-8.718,12.723-23.133,21.284-38.455,23.27c-13.761,1.95-28.12-1.697-39.544-9.481c-10.943-7.729-19.14-19.332-22.25-32.36
		c-3.781-15.169-0.836-31.955,8.189-44.812C62.294,71.302,74.08,62.932,87.378,59.872 M68.464,79.086
		c-9.734,8.767-15.533,21.778-15.332,34.853c-0.182,13.805,6.317,27.458,17.032,36.225c1.036-2.33,1.962-4.705,3.009-7.025
		c8.353,1.742,17.54,2.157,25.357-1.77c5.08-2.69,9.843-7.729,9.335-13.85c-0.172-4.632-4.334-7.963-8.499-9.229
		c-7.917-1.978-16.104,0.46-23.059,4.271c0.381-5.057,1.671-9.967,2.626-14.935c1.2-5.364,1.899-10.834,3.353-16.144
		c4.255,2.601,8.499,5.22,12.725,7.865c-0.492,2.943-0.973,5.895-1.172,8.877c6.563-1.508,13.478-2.916,20.158-1.245
		c6.135,1.382,11.707,5.769,13.679,11.811c2.227,6.646,1.182,14.265-2.655,20.144c-5.262,8.685-14.75,13.842-24.312,16.569
		c-5.144,1.563-10.562,1.661-15.832,2.538c3.318,1.77,7.071,2.446,10.779,2.853c12.36,1.308,25.249-2.33,34.874-10.193
		c9.943-7.9,16.533-19.918,17.532-32.55c1.327-13.545-3.689-27.548-13.306-37.246c-4.554,5.075-10.308,9.111-16.823,11.241
		c-5.352,1.941-11.17,1.823-16.768,1.382c-8.062-1.164-15.123-5.779-21.168-10.971c5.516-4.361,11.379-8.362,17.741-11.422
		c2.726-1.337,5.553-2.501,8.108-4.153C92.395,65.244,78.353,69.912,68.464,79.086 M116.361,70.445
		c-9.324,1.77-18.86,4.912-26.14,11.17c-0.709,0.118-1.399,0.263-2.091,0.442c4.207,3.793,9.707,6.013,15.332,6.51
		c13.261,1.734,27.448-6.42,31.648-19.206c-0.354,0.181-1.073,0.56-1.436,0.749C127.959,68.856,122.078,69.65,116.361,70.445z"/>
	<path id="path10" class="st2" d="M245.295,78.3c36.791-1.5,73.527,2.086,109.982,6.673c-0.363,2.43-1.055,4.786-2.026,7.033
		c-23.194-2.446-46.453-4.424-69.766-5.435c-12.907-0.171-25.875-0.649-38.737,0.794c-2.335,0.071-2.782,2.89-3.263,4.668
		c-2.317,13.634-4.808,27.25-7.053,40.893c-0.492,1.626-0.201,3.828-1.899,4.803c-3.499,0.281-7.016,0.071-10.525,0.018
		c2.517-16.542,6.045-32.92,8.515-49.47c-2.954,0.281-5.899,0.678-8.861,0.767c-1.88,0.144-4.035-0.026-5.49,1.4
		c-1.01,1.355-1.182,3.105-1.544,4.705c-2.39,14.212-4.89,28.406-7.425,42.6c-3.554,0.09-7.116,0.118-10.67,0.008
		c2.354-15.684,5.635-31.223,8.235-46.862c-9.752,1.164-19.441,2.79-29.083,4.605c0.272-2.068,0.445-4.198,1.272-6.15
		c1.073-1.345,2.909-1.526,4.463-1.986C202.414,82.617,223.781,79.357,245.295,78.3z"/>
</g>
<g id="leaf_1_">
	<path class="st5" d="M87.17,82.631c16.6,12.505,40.954,6.162,49.069-13.319C121.191,76.469,104.591,81.001,87.17,82.631"/>
	<path class="st6" d="M87.262,82.631c17.42-1.449,34.02-6.07,49.069-13.319C119.458,67.499,101.762,71.666,87.262,82.631"/>
</g>
<g id="krapochki">
	<path class="st2" d="M370.268,94.57l3.208,0.531c0.891,0.09,1.694,0.267,1.96-1.152l1.069-3.895
		c0.268-1.152-0.09-1.416-1.338-1.683l-2.942-0.531c-0.625,0-1.694-0.267-1.96,1.152l-1.159,4.072
		C369.02,93.949,369.199,94.48,370.268,94.57"/>
	<path class="st2" d="M360.108,93.241l3.564,0.531c0.891,0.09,1.694,0.267,2.139-1.152l1.159-4.072
		c0.268-1.329-0.09-1.593-1.338-1.86l-3.298-0.354c-0.625-0.09-1.694-0.267-2.139,1.152l-1.159,4.162
		C358.772,92.533,359.039,93.064,360.108,93.241"/>
</g>
<g id="yaterocka">
	<g id="Layer_1_1_">
		<g>
			<path class="st2" d="M110.441,53.541"/>
		</g>
		<path class="st2" d="M334.386,102.411c-6.137,0-9.734,3.832-12.714,8.624h-0.088c0-4.878-1.93-8.624-7.54-8.624
			c-6.663,0-10.172,4.878-12.452,9.06h-0.088c0.35-1.569,0.789-3.746,1.139-5.576c0.088-0.61-0.088-1.306-0.526-1.654
			c-0.35-0.523-1.053-0.783-1.665-0.783h-6.663l-5.963,33.189c-0.088,0.523,0,1.131,0.35,1.654c0.35,0.348,0.877,0.611,1.579,0.611
			h7.014l0.526-2.961c3.507-19.774,8.331-25.175,12.188-25.175c2.718,0,3.157,2.613,2.456,6.097l-3.595,19.338
			c-0.088,0.611,0,1.306,0.526,1.829c0.35,0.523,1.053,0.783,1.665,0.783h6.928l0.526-2.961
			c3.507-19.599,8.331-25.175,12.188-25.175c2.63,0,2.98,2.44,2.368,6.097l-3.595,19.861c-0.088,0.523,0,1.046,0.35,1.569
			c0.35,0.348,0.877,0.61,1.403,0.61h7.102l4.033-22.474c0.35-1.829,0.526-3.484,0.526-4.878
			C342.191,105.372,339.384,102.411,334.386,102.411 M283.266,103.282h-13.679c-10.172,0-16.924,4.269-16.924,12.283
			c0,4.269,2.98,6.97,5.963,7.23v0.088c-1.139,0.348-2.456,1.917-3.857,3.571c-2.456,3.136-4.298,5.14-5.875,5.14
			c-0.262,0-0.526,0.26-0.615,0.523l-0.789,5.576c0,0.26,0,0.523,0.262,0.611c0.088,0.087,0.35,0.26,0.615,0.26h2.894
			c4.648,0,6.225-1.829,10.785-7.491c3.507-4.617,4.822-6.097,7.016-6.097h1.579l-2.192,12.544c0,0.26,0,0.523,0.088,0.611
			c0.088,0.26,0.35,0.26,0.615,0.26h7.892c0.35,0,0.789-0.26,0.789-0.611l6.137-33.799c0-0.26,0-0.523-0.088-0.61
			C283.793,103.455,283.529,103.282,283.266,103.282 M271.955,118.786h-4.91c-3.157,0-4.56-1.046-4.56-3.136
			c0-3.484,2.192-5.313,6.489-5.313h4.56C273.532,110.337,271.955,118.786,271.955,118.786z M377.966,111.556
			c0-5.836-4.121-9.147-10.873-9.147c-11.399,0-20.519,9.843-20.519,23.085c0,8.362,4.648,14.198,13.679,14.198
			c7.016,0,11.573-2.7,14.292-5.14l-3.771-6.359c-2.192,1.917-5.348,3.746-9.119,3.746c-3.857,0-5.436-2.44-5.613-6.447
			C367.97,124.187,377.966,120.18,377.966,111.556 M356.658,119.397c1.315-5.14,4.298-9.843,8.855-9.843
			c2.192,0,3.419,0.871,3.419,2.961C368.846,116.348,363.936,118.786,356.658,119.397 M406.287,102.411
			c-6.225,0-9.47,4.269-12.452,9.32h-0.088c0.35-1.306,0.615-2.44,0.877-3.746c0.262-1.131,0-2.352-0.789-3.223
			c-0.789-0.871-1.842-1.394-2.98-1.394h-4.56l-9.47,51.396h5.348c2.368,0,4.384-1.654,4.822-4.007l2.104-11.498
			c0.789,0.26,2.368,0.523,4.91,0.523c12.364,0,21.307-9.931,21.307-25.262C415.318,107.028,411.811,102.411,406.287,102.411
			 M394.099,132.551c-2.104,0-3.157-0.26-3.595-0.348l0.35-1.917c2.718-13.067,7.278-19.599,11.573-19.599
			c2.192,0,3.245,2.09,3.245,5.313C405.498,126.279,400.412,132.551,394.099,132.551 M555.439,102.411
			c-13.241,0-22.446,10.454-22.446,25.698c0,7.318,3.771,11.585,9.208,11.585c5.875,0,9.382-4.269,12.1-9.408h0.088
			c-0.35,1.569-0.615,3.484-0.877,5.313c-0.088,0.783,0.088,1.654,0.789,2.352c0.526,0.611,1.315,0.871,2.192,0.871h6.137
			c0.088-2.613,0.526-8.362,2.192-18.207l2.98-16.115C566.224,103.717,561.752,102.411,555.439,102.411 M557.104,111.819
			c-2.456,13.327-7.102,19.599-11.049,19.599c-2.192,0-3.245-1.829-3.245-5.14c0-9.931,5.348-16.898,11.135-16.898
			c1.403,0,2.718,0.26,3.419,0.348L557.104,111.819L557.104,111.819z M520.452,124.798c-1.053-2.09-2.104-3.484-3.157-4.355
			l15.695-17.161h-8.593c-1.403,0-2.894,0.61-3.857,1.829l-11.049,12.631h-1.93l2.104-11.585c0.088-0.61,0-1.394-0.526-1.917
			c-0.35-0.523-1.139-0.871-1.842-0.871h-6.751l-6.401,35.453h6.928c1.579,0,2.894-1.131,3.157-2.613l2.192-12.021h1.053
			c2.104,0,3.419,2.177,5.613,6.97c2.63,5.576,3.857,7.578,8.417,7.578h3.771l1.315-7.055h-0.789
			C523.961,131.68,522.644,129.503,520.452,124.798 M481.785,105.459c-1.403,9.06-6.137,14.984-10.611,14.984
			c-2.368,0-3.157-1.654-2.456-5.576l1.139-6.97c0.088-1.131-0.088-2.352-0.877-3.223c-0.789-0.871-1.841-1.394-2.98-1.394h-4.822
			l-2.192,12.021c-0.262,1.569-0.35,3.136-0.35,4.355c0,5.924,2.894,9.147,7.892,9.147c6.401,0,10.523-4.094,13.153-8.624h0.088
			c-1.053,5.401-2.456,13.415-2.98,18.467h9.208c0.088-2.613,0.789-8.362,2.456-18.207l3.157-17.334h-9.47L481.785,105.459
			L481.785,105.459z M439.17,102.411c-11.573,0-20.255,10.191-20.255,22.562c0,8.101,5.086,14.809,14.292,14.809
			c11.838,0,19.992-9.67,19.992-22.474C453.199,108.683,448.113,102.411,439.17,102.411 M434.084,132.288
			c-3.595,0-5.436-3.136-5.436-7.753c0-6.62,3.771-14.984,9.734-14.984c3.595,0,5.436,2.7,5.436,7.578
			C443.641,123.839,440.309,132.288,434.084,132.288"/>
	</g>
	<g id="Layer_3">
	</g>
	<path class="st2" d="M267.834,39.168"/>
	<path class="st2" d="M276.165-7"/>
</g>
</svg>
