<svg xmlns="http://www.w3.org/2000/svg" xmlns:xlink="http://www.w3.org/1999/xlink" viewBox="0 0 127.08 83.53"><defs><style>.cls-1,.cls-3,.cls-5,.cls-8,.cls-9{fill:none;}.cls-2{clip-path:url(#clip-path);}.cls-3,.cls-8,.cls-9{stroke:#fff;stroke-width:2px;}.cls-3,.cls-8{stroke-linecap:round;stroke-linejoin:round;}.cls-4{fill:#f7b600;}.cls-5{stroke:#f7b600;}.cls-5,.cls-9{stroke-miterlimit:10;}.cls-6{fill:#fff;}.cls-6,.cls-7{opacity:0.4;}.cls-8{stroke-dasharray:3.39 3.39;}</style><clipPath id="clip-path" transform="translate(-2.65 -3.36)"><polygon class="cls-1" points="6.1 46.72 0 32.08 0.83 23.05 13 14.5 38.83 10 68.29 6.5 88.33 1 115.17 0 125.67 0.83 128.72 10.17 128 23.05 126 32.08 119.58 36.51 6.1 37.87 6.1 46.72"/></clipPath></defs><title>Asset 39</title><g id="Layer_2" data-name="Layer 2"><g id="Слой_1" data-name="Слой 1"><g class="cls-2"><line class="cls-3" x1="62.57" y1="30.1" x2="86.69" y2="24.83"/><line class="cls-3" x1="64.11" y1="37.14" x2="88.23" y2="31.88"/><line class="cls-3" x1="65.64" y1="44.19" x2="82.15" y2="40.58"/><path class="cls-4" d="M43.77,56.7l-.16-.75a2,2,0,0,0-2.32-1.49l-.9.2c-1.63-1.77-2.86-5.24-3.3-7.24.12-.4.24-.78.34-1.09.65-2,1.34-6.47.89-8.51l-.06-.29c-.08-.35-.14-.62-.2-.85,0,0,0-.1,0-.13a6.5,6.5,0,0,0-12.7,2.77,6.4,6.4,0,0,0,.92,2.15v0l5.2,10.45a38.43,38.43,0,0,1-.74,4.81l-.87.19a2,2,0,0,0-1.49,2.32l.16.75a2,2,0,0,0-.88,2.07l.28,1.27a.65.65,0,0,0,.77.5l16.51-3.61a.65.65,0,0,0,.5-.77l-.28-1.27A2,2,0,0,0,43.77,56.7Zm-15-13a6.48,6.48,0,0,0,.84.34,32.06,32.06,0,0,1,1.71,4.58c0,.09,0,.19,0,.29ZM37,37.8l.06.28c.35,1.62-.19,5.73-.9,8-.52,1.62-1.6,5-1,7.76a.65.65,0,1,0,1.27-.28,9.49,9.49,0,0,1,0-3.54,18.1,18.1,0,0,0,2.47,5l-6.83,1.49c.37-1.83,1-5.72.52-8.1a37.69,37.69,0,0,0-2.08-5.51l-1.66-.57A5.14,5.14,0,0,1,26.6,39a5.2,5.2,0,0,1,9.74-3.41M29.63,59a.65.65,0,0,1,.5-.77l11.43-2.5a.65.65,0,0,1,.77.5l.14.64-12.7,2.77Zm14.66.12L29.06,62.45l-.14-.64a.65.65,0,0,1,.5-.77l14-3.05a.65.65,0,0,1,.77.5Z" transform="translate(-2.65 -3.36)"/><ellipse class="cls-5" cx="28.17" cy="38.7" rx="1.82" ry="2.59" transform="translate(-10.26 3.55) rotate(-12.32)"/><ellipse class="cls-5" cx="34.92" cy="42.88" rx="2.59" ry="2.2" transform="translate(-14.31 69.33) rotate(-83.46)"/><ellipse class="cls-5" cx="33.77" cy="34.77" rx="1.96" ry="2.79" transform="translate(-16.38 41.06) rotate(-57.32)"/><circle class="cls-6" cx="101.82" cy="25.04" r="1.99" transform="translate(-5.64 18.95) rotate(-12.32)"/><circle class="cls-6" cx="103.36" cy="32.08" r="1.99" transform="translate(-7.11 19.44) rotate(-12.32)"/><circle class="cls-6" cx="104.9" cy="39.13" r="1.99" transform="translate(-8.58 19.93) rotate(-12.32)"/><g class="cls-7"><line class="cls-3" x1="48.55" y1="25.63" x2="48.97" y2="27.59"/><line class="cls-8" x1="49.7" y1="30.9" x2="53.67" y2="49.11"/><line class="cls-3" x1="54.04" y1="50.77" x2="54.46" y2="52.72"/></g><path class="cls-3" d="M4.89,37.36,13,74.3a3,3,0,0,0,3.59,2.31l109.8-24A3,3,0,0,0,128.65,49l-2.1-9.62a12.34,12.34,0,0,1-5-23.06l-2.1-9.62a3,3,0,0,0-3.59-2.31L6,28.41A3,3,0,0,0,3.72,32l2.11,9.65" transform="translate(-2.65 -3.36)"/></g><path class="cls-9" d="M6.1,45.06V82.87a3,3,0,0,0,3,3H121.51a3,3,0,0,0,3-3V73a12.34,12.34,0,0,1,0-23.6V39.58a3,3,0,0,0-3-3H9.12a3,3,0,0,0-3,3v9.88" transform="translate(-2.65 -3.36)"/><line class="cls-3" x1="63.22" y1="50.77" x2="87.91" y2="50.77"/><line class="cls-3" x1="63.22" y1="57.97" x2="87.91" y2="57.97"/><line class="cls-3" x1="63.22" y1="65.18" x2="80.12" y2="65.18"/><path class="cls-4" d="M40,72.25v-.77a2,2,0,0,0-2-2h-.92c-1.22-2.08-1.68-5.73-1.68-7.78l.56-1c1.07-1.85,2.69-6,2.69-8.13v-.29c0-.36,0-.63,0-.87,0,0,0-.1,0-.13a6.5,6.5,0,0,0-13,0,6.4,6.4,0,0,0,.44,2.3s0,0,0,0L28.95,65a38.43,38.43,0,0,1-1.75,4.54h-.89a2,2,0,0,0-2,2v.77a2,2,0,0,0-1.3,1.83v1.3a.65.65,0,0,0,.65.65h16.9a.65.65,0,0,0,.65-.65v-1.3A2,2,0,0,0,40,72.25ZM28.12,56.38a6.48,6.48,0,0,0,.74.51,32.06,32.06,0,0,1,.69,4.84c0,.09,0,.2,0,.29Zm9.24-4v.29c0,1.65-1.41,5.56-2.57,7.58-.85,1.47-2.63,4.54-2.63,7.37a.65.65,0,0,0,1.3,0,9.49,9.49,0,0,1,.8-3.45,18.1,18.1,0,0,0,1.35,5.4h-7c.76-1.7,2.24-5.36,2.24-7.8A37.69,37.69,0,0,0,30,55.9L28.5,55A5.14,5.14,0,0,1,27,51.33,5.2,5.2,0,0,1,37.2,50.07M25.66,71.48a.65.65,0,0,1,.65-.65H38a.65.65,0,0,1,.65.65v.65h-13ZM40,74.73H24.36v-.65a.65.65,0,0,1,.65-.65h14.3a.65.65,0,0,1,.65.65Z" transform="translate(-2.65 -3.36)"/><ellipse class="cls-5" cx="25.91" cy="47.99" rx="1.82" ry="2.59"/><ellipse class="cls-5" cx="34.26" cy="56.86" rx="2.59" ry="2.2" transform="translate(-33.27 67.55) rotate(-71.14)"/><ellipse class="cls-5" cx="34.87" cy="48.69" rx="1.96" ry="2.79" transform="translate(-26.86 35.56) rotate(-45)"/><circle class="cls-6" cx="100.79" cy="50.36" r="1.99"/><circle class="cls-6" cx="100.79" cy="57.57" r="1.99"/><circle class="cls-6" cx="100.79" cy="64.77" r="1.99"/><g class="cls-7"><line class="cls-3" x1="50.48" y1="43.41" x2="50.48" y2="45.41"/><line class="cls-8" x1="50.48" y1="48.8" x2="50.48" y2="67.44"/><line class="cls-3" x1="50.48" y1="69.14" x2="50.48" y2="71.14"/></g></g></g></svg>