<svg xmlns="http://www.w3.org/2000/svg" xmlns:xlink="http://www.w3.org/1999/xlink" viewBox="0 0 106.28 67.34"><defs><style>.cls-1,.cls-2,.cls-4,.cls-7{fill:none;}.cls-2,.cls-7{stroke:#fff;stroke-linecap:round;stroke-linejoin:round;stroke-width:3px;}.cls-3{fill:#f7b600;}.cls-4{stroke:#f7b600;stroke-miterlimit:10;}.cls-5{fill:#fff;}.cls-5,.cls-6{opacity:0.4;}.cls-7{stroke-dasharray:3.76 3.76;}.cls-8{clip-path:url(#clip-path);}</style><clipPath id="clip-path" transform="translate(-1.49 -2.93)"><rect class="cls-1" width="112.5" height="27.62"/></clipPath></defs><title>3</title><g id="Слой_2" data-name="Слой 2"><g id="Слой_1-2" data-name="Слой 1"><line class="cls-2" x1="50.13" y1="40.23" x2="70.43" y2="40.23"/><line class="cls-2" x1="50.13" y1="46.15" x2="70.43" y2="46.15"/><line class="cls-2" x1="50.13" y1="52.08" x2="64.02" y2="52.08"/><path class="cls-3" d="M30.32,58.06v-.64a1.6,1.6,0,0,0-1.6-1.6H28a14.85,14.85,0,0,1-1.38-6.4l.46-.81c.88-1.53,2.21-5,2.21-6.68v-.24c0-.3,0-.52,0-.72a.45.45,0,0,0,0-.11,5.35,5.35,0,0,0-10.69,0,5.26,5.26,0,0,0,.37,1.89s0,0,0,0l2.34,9.3a32.36,32.36,0,0,1-1.44,3.74H19.1a1.6,1.6,0,0,0-1.6,1.6v.64a1.59,1.59,0,0,0-1.07,1.5v1.07a.53.53,0,0,0,.53.53H30.85a.54.54,0,0,0,.54-.53V59.56A1.59,1.59,0,0,0,30.32,58.06ZM20.59,45a6.58,6.58,0,0,0,.61.42,25.83,25.83,0,0,1,.57,4c0,.07,0,.16,0,.24Zm7.59-3.32v.24a17.81,17.81,0,0,1-2.11,6.23c-.7,1.21-2.16,3.73-2.16,6.06a.54.54,0,0,0,1.07,0,7.68,7.68,0,0,1,.66-2.84,14.68,14.68,0,0,0,1.1,4.44H21c.62-1.4,1.84-4.41,1.84-6.41a30.67,30.67,0,0,0-.71-4.79l-1.23-.76a4.2,4.2,0,0,1-1.27-3,4.27,4.27,0,0,1,8.42-1M18.56,57.42a.54.54,0,0,1,.54-.53h9.62a.53.53,0,0,1,.53.53V58H18.56Zm11.76,2.67H17.5v-.53A.53.53,0,0,1,18,59H29.79a.53.53,0,0,1,.53.53Z" transform="translate(-1.49 -2.93)"/><ellipse class="cls-4" cx="19.46" cy="37.94" rx="1.49" ry="2.13"/><ellipse class="cls-4" cx="25.64" cy="45.41" rx="2.13" ry="1.81" transform="translate(-27.11 52.06) rotate(-71.14)"/><ellipse class="cls-4" cx="26.13" cy="38.69" rx="1.61" ry="2.29" transform="translate(-21.19 26.89) rotate(-45)"/><circle class="cls-5" cx="81.01" cy="39.89" r="1.63"/><circle class="cls-5" cx="81.01" cy="45.82" r="1.63"/><circle class="cls-5" cx="81.01" cy="51.74" r="1.63"/><g class="cls-6"><line class="cls-2" x1="39.66" y1="34.18" x2="39.66" y2="36.18"/><line class="cls-7" x1="39.66" y1="39.94" x2="39.66" y2="53.09"/><line class="cls-2" x1="39.66" y1="54.97" x2="39.66" y2="56.97"/></g><path class="cls-2" d="M2.49,35.71V66.78A2.49,2.49,0,0,0,5,69.27H97.35a2.49,2.49,0,0,0,2.48-2.49V58.69a10.14,10.14,0,0,1,0-19.4V31.2a2.48,2.48,0,0,0-2.48-2.48H5A2.48,2.48,0,0,0,2.49,31.2v8.12" transform="translate(-1.49 -2.93)"/><g class="cls-8"><line class="cls-2" x1="53.53" y1="23.57" x2="73.48" y2="19.87"/><line class="cls-2" x1="54.61" y1="29.4" x2="74.56" y2="25.7"/><line class="cls-2" x1="55.69" y1="35.23" x2="69.35" y2="32.69"/><path class="cls-3" d="M36.79,45l-.12-.62a1.6,1.6,0,0,0-1.87-1.28l-.74.13a14.77,14.77,0,0,1-2.52-6c.11-.33.21-.64.3-.89.59-1.66,1.27-5.28,1-7l0-.24c0-.29-.09-.51-.14-.7a.37.37,0,0,0,0-.11,5.34,5.34,0,1,0-10.51,1.95,5.44,5.44,0,0,0,.7,1.79,0,0,0,0,1,0,0l4,8.72a31,31,0,0,1-.74,3.94l-.71.13a1.61,1.61,0,0,0-1.29,1.87l.12.62A1.59,1.59,0,0,0,23.4,49l.2,1.05a.53.53,0,0,0,.62.43L37.88,48a.53.53,0,0,0,.43-.62l-.2-1A1.59,1.59,0,0,0,36.79,45ZM24.84,34a7,7,0,0,0,.68.3,25.31,25.31,0,0,1,1.28,3.81,1.72,1.72,0,0,1,0,.24Zm6.86-4.65.05.23a18.09,18.09,0,0,1-.95,6.52c-.47,1.31-1.44,4.06-1,6.35a.53.53,0,0,0,.63.42.52.52,0,0,0,.42-.62A7.79,7.79,0,0,1,31,39.32a14.92,14.92,0,0,0,1.89,4.17l-5.64,1c.35-1.49,1-4.67.64-6.64a30.91,30.91,0,0,0-1.57-4.58l-1.35-.51a4.23,4.23,0,0,1-1.8-2.73,4.27,4.27,0,0,1,8.09-2.55m-6.12,19a.53.53,0,0,1,.43-.62L35,44.18a.53.53,0,0,1,.62.43l.1.52L25.21,47.08Zm12,.49L24.55,49.37l-.1-.52a.53.53,0,0,1,.43-.62l11.56-2.15a.53.53,0,0,1,.62.43Z" transform="translate(-1.49 -2.93)"/><ellipse class="cls-4" cx="24.44" cy="29.84" rx="1.49" ry="2.13" transform="translate(-6.52 2.03) rotate(-10.5)"/><ellipse class="cls-4" cx="29.88" cy="33.45" rx="2.13" ry="1.81" transform="translate(-9.05 55.22) rotate(-81.64)"/><ellipse class="cls-4" cx="29.14" cy="26.76" rx="1.61" ry="2.29" transform="translate(-10.9 32.69) rotate(-55.5)"/><circle class="cls-5" cx="83.83" cy="17.62" r="1.63"/><circle class="cls-5" cx="84.91" cy="23.44" r="1.63"/><circle class="cls-5" cx="85.99" cy="29.27" r="1.63"/><g class="cls-6"><line class="cls-2" x1="42.12" y1="19.54" x2="42.49" y2="21.5"/><line class="cls-7" x1="43.17" y1="25.2" x2="45.57" y2="38.13"/><line class="cls-2" x1="45.91" y1="39.98" x2="46.28" y2="41.95"/></g><path class="cls-2" d="M5.35,28.13,11,58.69a2.49,2.49,0,0,0,2.89,2l90.84-16.84a2.49,2.49,0,0,0,2-2.89l-1.48-8a10.15,10.15,0,0,1-3.53-19.08L100.24,6a2.48,2.48,0,0,0-2.89-2L6.51,20.81a2.49,2.49,0,0,0-2,2.89l1.48,8" transform="translate(-1.49 -2.93)"/></g></g></g></svg>