<svg xmlns="http://www.w3.org/2000/svg" viewBox="0 0 135.35 47.18"><defs><style>.cls-1{fill:#4fa246;}.cls-2{fill:#fff;}.cls-3{fill:#e9322b;}</style></defs><title>logo</title><g id="Layer_2" data-name="Layer 2"><g id="Слой_1" data-name="Слой 1"><path class="cls-1" d="M129.28,47.18H6.08A6.07,6.07,0,0,1,0,41.12V6.06A6.07,6.07,0,0,1,6.08,0h123.2a6.07,6.07,0,0,1,6.08,6.06V41.12a6.07,6.07,0,0,1-6.08,6.06"/><path class="cls-2" d="M42.48,13.34c-.1-.3-.42-1.13-.42-1.13l-.59-.16a4.81,4.81,0,0,0-1.16-.12A10,10,0,0,0,34,14.5a13.41,13.41,0,0,0-2.81,3.23,2.55,2.55,0,0,0-1.92-.91,2.44,2.44,0,0,0-.09-.43,2.55,2.55,0,0,0-2.43-1.82,2.51,2.51,0,0,0-.72.1,2.54,2.54,0,0,0-1.7,3.15,2.61,2.61,0,0,0,.21.5,2.55,2.55,0,0,0-.93,1.22A9,9,0,0,0,19.26,18a9.94,9.94,0,0,0-1.06-.06,7.73,7.73,0,0,0-4.85,1.54l-1,.83,4.95,4.51.75-.56a6.23,6.23,0,0,1,3.06-.87,4.24,4.24,0,0,1,.56,0,17.93,17.93,0,0,0-5.53,7.39A2.52,2.52,0,0,0,17.26,34a2.36,2.36,0,0,0,1.05.25A2.58,2.58,0,0,0,20,33.55a25.38,25.38,0,0,1,6.61-4.31l.2-.09.49-.21c.69-.29,1.44-.56,2.37-.85l.13,0,.38-.11c.9-.25,1.7-.43,2.56-.59l.18,0,.57-.09a26.25,26.25,0,0,1,3.9-.28c1.06,0,2.19.06,3.34.17l.35,0a10.21,10.21,0,0,0,1.08.08,2,2,0,0,0,2.23-1.71c.38-1.78-1.23-2.68-1.84-3l-.29-.16A17.54,17.54,0,0,0,39,20.85,8.43,8.43,0,0,1,39.66,19l.22.2a6.3,6.3,0,0,1,.76,1l.38.62,2.89-.39-.06-1a18.9,18.9,0,0,0-.57-3.19l1.51-.61a3,3,0,0,0-2.32-2.28"/><path class="cls-3" d="M17.25,31.11c-.22.78-.13,1.54.51,1.86a1.38,1.38,0,0,0,1.52-.25,26.51,26.51,0,0,1,6.89-4.5l-3.06-4.47a16.92,16.92,0,0,0-5.86,7.36m6.07-8.38a2.4,2.4,0,0,1,.69-.32l.7-.21a7.43,7.43,0,0,0-5.57-3.1,6.87,6.87,0,0,0-5.06,1.21l3.33,3c.55-.41,3.44-1.84,5.92-.61M42,23.5a17.3,17.3,0,0,0-4.32-1.88c.51-3.41,2.12-4.73,2.12-4.73l-.07.86a3.71,3.71,0,0,1,.91.69,7.47,7.47,0,0,1,.93,1.19l1.13-.15a18.15,18.15,0,0,0-.61-3.25l-.19-.68h0l1.27-.5s-.26-.5-1.62-.62c-.23-.73-.39-1.21-.42-1.28s-2.83-.75-6.43,2.23a12.29,12.29,0,0,0-3.53,4.86v0l1.08-.32a.86.86,0,0,1,.84.09.83.83,0,0,1,.33.82c0,.25-.12,5.28-.12,5.28A30,30,0,0,1,40.87,26c1.37.14,2.23.34,2.45-.7.19-.88-.52-1.37-1.29-1.8"/><path class="cls-1" d="M26.43,21.79a1.42,1.42,0,1,0-1.75-1,1.41,1.41,0,0,0,1.75,1m.77-3.31a1.42,1.42,0,1,0-1.75-1,1.41,1.41,0,0,0,1.75,1m.75,1.29A1.4,1.4,0,1,0,28.89,18a1.41,1.41,0,0,0-.95,1.76m2,7.08c.94-.26,1.78-.45,2.67-.61,0-.37,0-1.54.07-2.7l-3.41,1Zm-4.52-1.16,1.51,2.21c.8-.34,1.63-.63,2.47-.89l-.68-2.3Zm2.52-3.63-4.15,1.23.23.34L25,25.2l3.48-1Zm.54-.16L29.06,24l3.59-1.06c0-1,0-1.95.06-2.31Z"/><path class="cls-2" d="M90.81,26.66A1.65,1.65,0,1,0,92,29.48a2.55,2.55,0,0,1,3.13-.37v-1.6A2.55,2.55,0,0,1,92,27.15a1.64,1.64,0,0,0-1.17-.48M79.58,35a2.54,2.54,0,0,1-2.27-3.68l.87-1.74-1.19-2A4.75,4.75,0,0,1,72.5,31.2h-1v1.3A2.54,2.54,0,0,1,67,34.18,2.53,2.53,0,0,1,66,34.9a2.56,2.56,0,0,1-.84.14h0a2.55,2.55,0,0,1-2.4-1.69l0-.13h-1.4l-.09.22a2.55,2.55,0,0,1-4.15.86l-.2.18a2.54,2.54,0,0,1-3.57-.4l-1.6-2v.41a2.54,2.54,0,0,1-5.09,0V24.12a2.54,2.54,0,0,1,5.09,0v.41l1.6-2a2.54,2.54,0,1,1,4,3.17l-2.09,2.61,1.74,2.18,2.93-7.31a2.53,2.53,0,0,1,2.36-1.59h0a2.54,2.54,0,0,1,2.37,1.7l1.81,5.16V24.12a2.54,2.54,0,0,1,2.54-2.54H72.5a4.54,4.54,0,0,1,3.17,1.33,2.53,2.53,0,0,1,1-1,2.55,2.55,0,0,1,3.48.91l.8,1.36L81.51,23a2.55,2.55,0,0,1,4.69.34l0,.07a6.75,6.75,0,0,1,9-.13,2.55,2.55,0,0,1,2.39-1.67h3.78a2.54,2.54,0,0,1,1.43,4.63,2.53,2.53,0,0,1,1.11,2l2-5.07a2.53,2.53,0,0,1,2.36-1.59h0a2.54,2.54,0,0,1,2.38,1.7l1.72,4.9V24.12a2.54,2.54,0,0,1,5.09,0v1.3h1a4.81,4.81,0,0,1,0,9.62H115a2.53,2.53,0,0,1-1.86-.81,2.53,2.53,0,0,1-1,.67,2.58,2.58,0,0,1-.84.14,2.55,2.55,0,0,1-2.4-1.7l-.7-2-.84,2.09a2.54,2.54,0,0,1-4.15.86,2.53,2.53,0,0,1-1.79.73H97.65a2.55,2.55,0,0,1-2.39-1.67,6.74,6.74,0,0,1-11.14-4.24l-2.26,4.51A2.53,2.53,0,0,1,79.58,35"/><path class="cls-3" d="M90.81,33.92a5.6,5.6,0,1,1,4-9.56,1.41,1.41,0,1,1-2,2,2.78,2.78,0,1,0,0,3.93,1.41,1.41,0,1,1,2,2,5.58,5.58,0,0,1-4,1.64M72.5,27.25c.37,0,.68-.47.68-.86s-.32-.86-.68-.86H70.35v1.71Zm-3.56,6.67a1.42,1.42,0,0,1-1.42-1.41V24.12a1.42,1.42,0,0,1,1.42-1.41H72.5a3.69,3.69,0,0,1,0,7.37H70.35V32.5a1.42,1.42,0,0,1-1.41,1.41m28.72,0a1.42,1.42,0,0,1-1.42-1.41V24.12a1.42,1.42,0,0,1,1.42-1.41h3.78a1.41,1.41,0,1,1,0,2.83H99.07V26.9h2.36a1.41,1.41,0,1,1,0,2.82H99.07v1.37h2.36a1.41,1.41,0,1,1,0,2.82Zm20.94-2.82c.36,0,.68-.48.68-.86s-.32-.86-.68-.86h-2.15v1.72ZM115,33.92a1.42,1.42,0,0,1-1.41-1.41V24.12a1.42,1.42,0,0,1,2.83,0v2.43h2.15a3.69,3.69,0,0,1,0,7.37Zm-59.78,0a1.41,1.41,0,0,1-1.1-.53L50.78,29.2a1.43,1.43,0,0,1-.25-.46V32.5a1.42,1.42,0,0,1-2.83,0V24.12a1.42,1.42,0,0,1,2.83,0v3.77a1.43,1.43,0,0,1,.25-.46l3.36-4.19a1.41,1.41,0,0,1,1.1-.53,1.43,1.43,0,0,1,.88.31,1.41,1.41,0,0,1,.53,1.1,1.43,1.43,0,0,1-.31.88L53.7,28.31l2.65,3.31a1.42,1.42,0,0,1-1.11,2.3m56.06,0A1.42,1.42,0,0,1,110,33l-1.69-4.82-2,4.88a1.41,1.41,0,0,1-1.32.89,1.39,1.39,0,0,1-.52-.1,1.42,1.42,0,0,1-.79-1.84l3.36-8.38a1.42,1.42,0,0,1,2.65.06L112.64,32a1.42,1.42,0,0,1-.87,1.8,1.45,1.45,0,0,1-.47.08M62.71,29.4l-.62-1.62L61.4,29.4Zm2.41,4.52A1.42,1.42,0,0,1,63.78,33s-.08-.21-.31-.87h-3l-.37.93a1.41,1.41,0,0,1-1.32.89,1.4,1.4,0,0,1-.52-.1A1.42,1.42,0,0,1,57.51,32l3.36-8.38a1.41,1.41,0,0,1,1.32-.89,1.43,1.43,0,0,1,1.33.95L66.45,32a1.42,1.42,0,0,1-.87,1.8,1.44,1.44,0,0,1-.47.08Zm14.47,0a1.39,1.39,0,0,1-.63-.15,1.42,1.42,0,0,1-.63-1.9l1.14-2.28-2.78-4.75a1.42,1.42,0,0,1,.51-1.93,1.42,1.42,0,0,1,1.94.51L81,26.57l1.54-3.08A1.42,1.42,0,1,1,85,24.76l-4.2,8.38a1.41,1.41,0,0,1-1.27.78"/><path class="cls-2" d="M116.29,12.48h-2.61c-.55,0-.78.16-.78.6s.19.61.8.61h.62v2.6c0,.72.25,1,.7,1s.68-.33.68-1v-2.6h.58c.61,0,.85-.21.85-.61s-.24-.6-.84-.6M108,14.34a.93.93,0,0,1,.92-.83.9.9,0,0,1,.91.83Zm3.18.34A2.26,2.26,0,0,0,109,12.36a2.37,2.37,0,0,0-2.33,2.51,2.39,2.39,0,0,0,2.4,2.5c1.21,0,2.09-.59,2.09-1.15a.52.52,0,0,0-.56-.55c-.32,0-.77.46-1.46.46a1,1,0,0,1-1-.88h2.48c.47,0,.69-.09.69-.57m-7.76-.16.93-.88a1,1,0,0,0,.35-.68.56.56,0,0,0-.58-.54,1,1,0,0,0-.71.38L102.27,14v-.59c0-.69-.22-1-.69-1s-.7.34-.7,1v2.84c0,.69.22,1,.7,1s.69-.34.69-1V15l1.39,1.89a.88.88,0,0,0,.72.42.6.6,0,0,0,.65-.56,1,1,0,0,0-.27-.68Zm-7,1.56c-.53,0-.9-.48-.9-1.22s.39-1.21.9-1.21.91.48.91,1.2-.38,1.23-.91,1.23m.22-3.73a1.47,1.47,0,0,0-1.14.48.7.7,0,0,0-.66-.41c-.48,0-.7.3-.7,1v4.76c0,.69.22,1,.7,1s.69-.34.69-1V17a1.61,1.61,0,0,0,1.1.42,2.36,2.36,0,0,0,2.13-2.54,2.27,2.27,0,0,0-2.11-2.48m-7.12,3.73c-.51,0-.9-.51-.9-1.23s.4-1.2.9-1.2.91.51.91,1.2-.39,1.23-.91,1.23m1.6-3.66a.75.75,0,0,0-.66.45,1.35,1.35,0,0,0-1.11-.51,2.33,2.33,0,0,0-2.16,2.52,2.29,2.29,0,0,0,2.1,2.5,1.45,1.45,0,0,0,1.16-.55.68.68,0,0,0,.66.49c.47,0,.69-.34.69-1V13.44c0-.69-.21-1-.69-1m-6.14,1c-.06-.87-.35-1-.8-1a.7.7,0,0,0-.65.41l-1.45,2.68-1.47-2.58c-.23-.4-.48-.51-.71-.51-.45,0-.73.22-.79,1L79,16c0,.24,0,.47,0,.53,0,.55.2.83.62.83s.7-.31.76-1l.12-1.46,1,1.89c.17.31.43.6.66.6s.5-.25.66-.56l1-1.94.12,1.46c.05.71.3,1,.76,1s.62-.29.62-.84c0-.06,0-.32,0-.53ZM74.61,16.08c-.53,0-.9-.48-.9-1.22s.39-1.21.9-1.21.91.48.91,1.2-.38,1.23-.91,1.23m.22-3.73a1.48,1.48,0,0,0-1.14.48.7.7,0,0,0-.66-.41c-.48,0-.69.3-.69,1v4.76c0,.69.22,1,.69,1s.69-.34.69-1V17a1.62,1.62,0,0,0,1.1.42,2.36,2.36,0,0,0,2.13-2.54,2.27,2.27,0,0,0-2.11-2.48m-7.75,2a.93.93,0,0,1,.92-.83.9.9,0,0,1,.91.83Zm3.18.34A2.25,2.25,0,0,0,68,12.36a2.37,2.37,0,0,0-2.33,2.51,2.39,2.39,0,0,0,2.4,2.5c1.21,0,2.09-.59,2.09-1.15a.52.52,0,0,0-.55-.55c-.32,0-.77.46-1.46.46a1,1,0,0,1-1-.88h2.48c.47,0,.69-.09.69-.57m-7.35-2.2H60.1c-.45,0-.71.22-.71,1v2.77c0,.72.26,1,.71,1s.68-.36.68-1v-2.6h1.44v2.6c0,.72.24,1,.7,1s.69-.36.69-1V13.52c0-.86-.26-1-.69-1m-6.54-.06a.78.78,0,0,0-.69.41L54.27,15V13.45c0-.72-.25-1-.7-1s-.69.34-.69,1v2.84c0,.72.24,1,.69,1a.56.56,0,0,0,.51-.25l1.6-2.27v1.49c0,.72.23,1,.69,1s.7-.36.7-1V13.45c0-.72-.25-1-.7-1m-6.43.06H48.57c-.59,0-.86.39-.86,1.24v2.57c0,.72.24,1,.7,1s.69-.33.69-1v-2.6h.85c.59,0,.87-.19.87-.58s-.26-.63-.87-.63"/></g></g></svg>