<svg xmlns="http://www.w3.org/2000/svg" viewBox="0 0 15.98 15.97"><defs><style>.cls-1{fill:#fff;}</style></defs><title>Phone</title><g id="Layer_2" data-name="Layer 2"><g id="Layer_1-2" data-name="Layer 1"><path class="cls-1" d="M16,12.61a.77.77,0,0,1-.24.68l-2.25,2.23a1.27,1.27,0,0,1-.4.29,1.65,1.65,0,0,1-.48.15h-.32a7.81,7.81,0,0,1-1-.11,7.89,7.89,0,0,1-1.76-.54A14.79,14.79,0,0,1,7.13,14a17.61,17.61,0,0,1-2.81-2.37,18.55,18.55,0,0,1-2-2.23,15.91,15.91,0,0,1-1.25-2A10.6,10.6,0,0,1,.39,5.81,8.7,8.7,0,0,1,.07,4.54,4.18,4.18,0,0,1,0,3.71q0-.3,0-.34a1.64,1.64,0,0,1,.15-.48,1.27,1.27,0,0,1,.29-.4L2.71.24A.75.75,0,0,1,3.25,0a.63.63,0,0,1,.39.13,1.18,1.18,0,0,1,.29.31L5.74,3.87a.82.82,0,0,1,.08.59A1.05,1.05,0,0,1,5.54,5l-.83.83a.28.28,0,0,0-.06.11.42.42,0,0,0,0,.13,3.05,3.05,0,0,0,.3.81,7.46,7.46,0,0,0,.63,1,11,11,0,0,0,1.2,1.35,11.2,11.2,0,0,0,1.35,1.21,7.81,7.81,0,0,0,1,.63,2.64,2.64,0,0,0,.61.25l.21,0,.11,0a.28.28,0,0,0,.11-.06l1-1a1,1,0,0,1,.71-.27.88.88,0,0,1,.46.1h0L15.55,12a.85.85,0,0,1,.42.56Zm0,0"/></g></g></svg>