<svg xmlns="http://www.w3.org/2000/svg" xmlns:xlink="http://www.w3.org/1999/xlink" viewBox="0 0 22.97 13"><defs><style>.cls-1{fill:none;}.cls-2{clip-path:url(#clip-path);}.cls-3{fill:#fff;fill-rule:evenodd;}</style><clipPath id="clip-path" transform="translate(0 -0.02)"><rect class="cls-1" width="23" height="13.11"/></clipPath></defs><title>Vk</title><g id="Layer_2" data-name="Layer 2"><g id="Layer_1-2" data-name="Layer 1"><g class="cls-2"><path class="cls-3" d="M19.77,8.28A31.25,31.25,0,0,1,22,10.55a6.56,6.56,0,0,1,.81,1.16c.31.6,0,1.26-.51,1.3H19a2.58,2.58,0,0,1-2.13-.87c-.46-.47-.89-1-1.34-1.46a3.16,3.16,0,0,0-.6-.54.7.7,0,0,0-1.11.27A3.52,3.52,0,0,0,13.43,12c0,.79-.27,1-1.07,1a8.56,8.56,0,0,1-4.79-1A10.58,10.58,0,0,1,4.36,9,40.62,40.62,0,0,1,.12,1.4C-.15.8,0,.48.7.47c1.09,0,2.18,0,3.28,0a1,1,0,0,1,.91.68A20.31,20.31,0,0,0,7.11,5.27a3.51,3.51,0,0,0,.84.92.51.51,0,0,0,.87-.25A2.86,2.86,0,0,0,9,5.07a12.88,12.88,0,0,0-.05-3A1.26,1.26,0,0,0,7.88.89C7.56.83,7.6.71,7.76.53a1.2,1.2,0,0,1,1-.51h3.78c.6.12.73.39.81,1V5.2c0,.23.12.92.53,1.07s.55-.16.75-.37A13,13,0,0,0,16.8,2.63c.26-.52.48-1.05.69-1.59a.81.81,0,0,1,.85-.59H22a1.9,1.9,0,0,1,.32,0c.61.1.78.37.59,1A9.09,9.09,0,0,1,21.45,4c-.61.84-1.26,1.65-1.86,2.5s-.51,1.16.18,1.83Zm0,0" transform="translate(0 -0.02)"/></g></g></g></svg>