<svg xmlns="http://www.w3.org/2000/svg" xmlns:xlink="http://www.w3.org/1999/xlink" viewBox="0 0 22.02 19.17"><defs><style>.cls-1{fill:none;}.cls-2{clip-path:url(#clip-path);}.cls-3{fill:#fff;}</style><clipPath id="clip-path"><rect class="cls-1" y="0.01" width="22" height="19.25"/></clipPath></defs><title>Telegram</title><g id="Layer_2" data-name="Layer 2"><g id="Layer_1-2" data-name="Layer 1"><g class="cls-2"><path class="cls-3" d="M.39,9.19l5.07,1.89,2,6.32a.6.6,0,0,0,.95.29l2.83-2.31a.84.84,0,0,1,1,0l5.1,3.7a.6.6,0,0,0,.94-.36L22,.72a.6.6,0,0,0-.8-.68L.38,8.07a.6.6,0,0,0,0,1.12Zm6.72.89L17,4a.17.17,0,0,1,.21.27L9.05,11.85a1.7,1.7,0,0,0-.53,1l-.28,2.07a.26.26,0,0,1-.5,0L6.67,11.2a1,1,0,0,1,.44-1.12Zm0,0"/></g></g></g></svg>