<svg xmlns="http://www.w3.org/2000/svg" viewBox="0 0 21 23.11"><defs><style>.cls-1{fill:#fff;}</style></defs><title>Viber</title><g id="Layer_2" data-name="Layer 2"><g id="Layer_1-2" data-name="Layer 1"><path class="cls-1" d="M16.28.55A30.82,30.82,0,0,0,4.72.55a6.67,6.67,0,0,0-4.2,4,22.12,22.12,0,0,0,0,9.49,6.67,6.67,0,0,0,4.2,4h0a.16.16,0,0,1,.13.16v4.61a.26.26,0,0,0,.44.18l2.19-2.25,2.06-2.11a.16.16,0,0,1,.12,0,30.83,30.83,0,0,0,6.62-.54,6.67,6.67,0,0,0,4.2-4,22.09,22.09,0,0,0,0-9.49,6.67,6.67,0,0,0-4.2-4Zm.06,13.75A3.56,3.56,0,0,1,14.81,16a3.67,3.67,0,0,1-.66.21c-.26-.08-.5-.13-.73-.23a16.63,16.63,0,0,1-6.27-4.19,16.27,16.27,0,0,1-2.4-3.67c-.31-.63-.57-1.28-.83-1.92a1.67,1.67,0,0,1,.49-1.64,3.86,3.86,0,0,1,1.29-1,.83.83,0,0,1,1,.25,13.36,13.36,0,0,1,1.6,2.24A1.07,1.07,0,0,1,8,7.51c-.12.08-.23.18-.35.27a1.14,1.14,0,0,0-.26.27.75.75,0,0,0-.05.66,6,6,0,0,0,3.36,3.72,1.71,1.71,0,0,0,.86.21c.53-.06.7-.64,1.06-.94a1,1,0,0,1,1.21-.05c.39.25.76.51,1.14.78a13,13,0,0,1,1.07.82.85.85,0,0,1,.25,1.05ZM13.29,8.78c-.15,0-.09,0,0,0a.38.38,0,0,1-.39-.37,3.87,3.87,0,0,0-.07-.49,1.39,1.39,0,0,0-.51-.81,1.34,1.34,0,0,0-.42-.2c-.19-.05-.39,0-.58-.09A.35.35,0,0,1,11,6.41a.37.37,0,0,1,.39-.3,2.13,2.13,0,0,1,2.18,2.12,1,1,0,0,1,0,.3.31.31,0,0,1-.26.25Zm-.75-3.23a4.23,4.23,0,0,0-1.17-.36l-.53-.07a.34.34,0,0,1-.32-.38.33.33,0,0,1,.37-.33,4.86,4.86,0,0,1,2,.53,4.1,4.1,0,0,1,2.23,3.19c0,.06,0,.13,0,.19s0,.32,0,.53a1.43,1.43,0,0,1,0,.22.35.35,0,0,1-.66,0,.94.94,0,0,1,0-.3A3.75,3.75,0,0,0,14,6.93a3.5,3.5,0,0,0-1.47-1.38Zm4,4.43c-.25,0-.36-.2-.38-.43,0-.44-.05-.88-.11-1.32a5.53,5.53,0,0,0-4.45-4.62c-.35-.06-.7-.08-1-.11s-.51,0-.56-.31a.38.38,0,0,1,.37-.43h.18c3,.08.18,0,0,0A6.29,6.29,0,0,1,16.69,8c.09.52.13,1.05.17,1.58a.37.37,0,0,1-.35.44Zm0,0"/></g></g></svg>