<svg xmlns="http://www.w3.org/2000/svg" viewBox="0 0 20 15.71"><defs><style>.cls-1{fill:#fff;}</style></defs><title>message</title><g id="Layer_2" data-name="Layer 2"><g id="Layer_1-2" data-name="Layer 1"><path class="cls-1" d="M18.21,15.71a1.71,1.71,0,0,0,1.17-.44L13.72,9.61l-.39.28q-.64.47-1,.73a6.44,6.44,0,0,1-1.05.53,3.22,3.22,0,0,1-1.23.27h0a3.22,3.22,0,0,1-1.23-.27,6.35,6.35,0,0,1-1.05-.53q-.4-.26-1-.73l-.39-.28L.62,15.27a1.71,1.71,0,0,0,1.17.44Zm0,0"/><path class="cls-1" d="M1.13,6A5.94,5.94,0,0,1,0,5.07v8.62l5-5Q3.5,7.65,1.13,6Zm0,0"/><path class="cls-1" d="M18.88,6Q16.6,7.58,15,8.7l5,5V5.07a6.18,6.18,0,0,1-1.12,1Zm0,0"/><path class="cls-1" d="M18.21,0H1.79A1.59,1.59,0,0,0,.46.58,2.25,2.25,0,0,0,0,2,2.61,2.61,0,0,0,.61,3.55,5.55,5.55,0,0,0,1.92,4.84L4.21,6.43,6,7.68l1.13.79.17.12.31.22.6.42.58.36a3.36,3.36,0,0,0,.64.3A1.76,1.76,0,0,0,10,10h0a1.77,1.77,0,0,0,.56-.1,3.36,3.36,0,0,0,.64-.3l.58-.36.6-.42.31-.22.17-.12L14,7.69l4.09-2.84a5.31,5.31,0,0,0,1.36-1.37A3,3,0,0,0,20,1.79,1.71,1.71,0,0,0,19.47.52,1.72,1.72,0,0,0,18.21,0Zm0,0"/></g></g></svg>